<?xml version="1.0" encoding="UTF-8" standalone="no"?>
<!-- Created with Inkscape (http://www.inkscape.org/) -->

<svg
   version="1.1"
   id="svg1"
   width="134"
   height="69"
   viewBox="0 0 134 69"
   sodipodi:docname="лого.svg"
   inkscape:version="1.4 (86a8ad7, 2024-10-11)"
   xmlns:inkscape="http://www.inkscape.org/namespaces/inkscape"
   xmlns:sodipodi="http://sodipodi.sourceforge.net/DTD/sodipodi-0.dtd"
   xmlns="http://www.w3.org/2000/svg"
   xmlns:svg="http://www.w3.org/2000/svg">
  <defs
     id="defs1" />
  <sodipodi:namedview
     id="namedview1"
     pagecolor="#ffffff"
     bordercolor="#000000"
     borderopacity="0.25"
     inkscape:showpageshadow="2"
     inkscape:pageopacity="0.0"
     inkscape:pagecheckerboard="0"
     inkscape:deskcolor="#d1d1d1"
     inkscape:zoom="5.6014493"
     inkscape:cx="60.341526"
     inkscape:cy="32.223803"
     inkscape:window-width="1920"
     inkscape:window-height="991"
     inkscape:window-x="-9"
     inkscape:window-y="-9"
     inkscape:window-maximized="1"
     inkscape:current-layer="g1" />
  <g
     inkscape:groupmode="layer"
     inkscape:label="Image"
     id="g1">
    <path
       style="fill:#000000"
       d="m 48.845192,68.511859 c -0.366667,-0.36667 -0.666667,-1.03042 -0.666667,-1.475 0,-0.44458 1.395548,-0.52922 3.101218,-0.18809 2.093913,0.41878 3.37457,0.17795 3.942797,-0.74146 0.486085,-0.7865 0.391607,-1.90389 -0.223662,-2.64525 -0.585883,-0.70594 -1.615398,-1.28353 -2.28781,-1.28353 -0.672412,0 -2.007872,-0.86775 -2.967688,-1.92834 -1.092565,-1.20727 -1.505324,-2.68387 -1.103835,-3.94885 0.352707,-1.11128 1.518266,-2.29885 2.590132,-2.63905 1.071867,-0.3402 2.848848,-0.33289 3.948848,0.0162 1.1,0.34913 2,1.0083 2,1.46484 0,0.45653 -1.4462,0.76371 -3.213777,0.68261 -2.271914,-0.10424 -3.314328,0.34039 -3.556871,1.51711 -0.214679,1.04155 0.520326,1.92795 1.963778,2.36828 1.268778,0.38705 3.09437,1.39524 4.05687,2.24043 0.9625,0.84519 1.75,2.10982 1.75,2.81029 0,0.70047 -0.707143,1.98073 -1.571429,2.84501 -0.864285,0.86429 -2.814285,1.57143 -4.333333,1.57143 -1.519048,0 -3.061905,-0.3 -3.428571,-0.66667 z m 13.333333,-1.33333 c -1.333333,-1.33334 -2,-3.33334 -2,-6 0,-2.66667 0.666667,-4.66667 2,-6 1.1,-1.1 3.088196,-2 4.418213,-2 1.330016,0 3.130016,0.27314 4,0.60699 0.869983,0.33384 1.581787,0.98055 1.581787,1.43712 0,0.45658 -1.4625,0.60133 -3.25,0.32167 -1.986841,-0.31085 -3.99494,0.0472 -5.166667,0.92132 -1.166483,0.87018 -1.916666,2.63855 -1.916666,4.51807 0,1.69854 0.62005,3.83537 1.37789,4.74851 1.06619,1.28468 2.375284,1.52355 5.786913,1.05594 3.839364,-0.52625 4.248463,-0.41086 3.166332,0.89303 -0.68348,0.82354 -2.762591,1.49735 -4.620247,1.49735 -2.044222,0 -4.167081,-0.78953 -5.377555,-2 z m 13,-6 c 0,-4.66667 0.416667,-8 1,-8 0.55,0 1,1.575 1,3.5 0,3.41666 0.09524,3.5 4,3.5 3.75994,0 4,-0.17651 4,-2.94099 0,-1.61754 0.45,-3.21909 1,-3.55901 0.635069,-0.3925 1,2.32295 1,7.44098 0,4.70601 -0.416056,8.05902 -1,8.05902 -0.55,0 -1,-1.575 -1,-3.5 0,-3.41667 -0.09524,-3.5 -4,-3.5 -3.904762,0 -4,0.0833 -4,3.5 0,1.925 -0.45,3.5 -1,3.5 -0.583333,0 -1,-3.33334 -1,-8 z m 17.732899,6.25 c -0.867393,-0.9625 -1.873756,-2.93904 -2.236364,-4.3923 -0.405799,-1.62636 -0.06549,-3.79058 0.885104,-5.62882 0.849415,-1.64259 2.272838,-3.26605 3.163163,-3.6077 0.890322,-0.34165 2.628539,-0.62118 3.862679,-0.62118 1.23414,0 3.311214,1.1361 4.615704,2.52467 1.6751,1.78305 2.34108,3.60886 2.26718,6.21559 -0.0712,2.51115 -0.809,4.26129 -2.30827,5.47533 -1.21201,0.98142 -3.659054,1.78441 -5.437884,1.78441 -1.812767,0 -3.927373,-0.76914 -4.811312,-1.75 z m 9.067116,-1.45 c 0.66,-0.66 1.2,-2.89417 1.2,-4.96482 0,-2.7972 -0.53797,-4.05273 -2.09314,-4.88503 -1.151234,-0.61612 -3.192154,-0.84438 -4.535381,-0.50726 -1.34323,0.33713 -2.863693,1.72149 -3.378811,3.07635 -0.515118,1.35486 -0.654346,3.2548 -0.309396,4.22207 0.34495,0.96728 1.062427,2.32119 1.594392,3.00869 0.531966,0.6875 2.172115,1.25 3.644772,1.25 1.47266,0 3.217564,-0.54 3.877564,-1.2 z m 8.42251,1.64329 c -1.72965,-1.21149 -2.22251,-2.54204 -2.22251,-6 0,-3.10996 0.60016,-5.04345 2,-6.44329 1.1,-1.1 3.33247,-2 4.96104,-2 1.75833,0 3.78924,0.88895 5,2.18856 1.3125,1.4088 2.03896,3.54654 2.03896,6 0,2.4781 -0.69965,4.51108 -2,5.81144 -1.1,1.1 -3.24987,2 -4.77749,2 -1.52763,0 -3.77763,-0.70052 -5,-1.55671 z m 9.53087,-3.60101 c 0.8921,-1.87087 0.97864,-3.41692 0.29232,-5.22207 -0.58076,-1.52754 -2.06264,-2.83734 -3.66511,-3.23954 -1.47958,-0.37135 -3.38121,-0.23927 -4.22585,0.29351 -0.84463,0.53279 -1.94229,2.18847 -2.43924,3.6793 -0.67185,2.01558 -0.47902,3.35848 0.75204,5.23733 1.2967,1.979 2.34523,2.45979 4.83706,2.21795 2.29167,-0.22241 3.53593,-1.05209 4.44878,-2.96648 z m 5.24662,-2.28327 c 0,-4.09254 0.45,-7.71909 1,-8.05901 0.63059,-0.38973 1,1.98961 1,6.44098 0,7.05902 0,7.05902 3.5,7.05902 1.925,0 3.5,0.45 3.5,1 0,0.55 -2.025,1 -4.5,1 -4.5,0 -4.5,0 -4.5,-7.44099 z M 16.678525,53.615019 c -1.65,-0.85315 -4.860249,-3.36779 -7.1338866,-5.58809 -2.273639,-2.2203 -5.311139,-6.44117 -6.75,-9.37971 -1.95572902,-3.99412 -2.61611302,-6.88986 -2.61611302,-11.47149 0,-3.37078 0.46334,-6.99445 1.02964402,-8.052595 0.566305,-1.058149 2.343958,-2.603566 3.95034,-3.434259 1.6063829,-0.830692 5.0835136,-1.51035 7.7269576,-1.51035 2.643444,0 6.378291,0.465875 8.29966,1.035277 1.921369,0.569403 5.197889,1.072685 7.281156,1.118405 2.91469,0.06397 5.174064,-0.889309 9.802158,-4.135733 4.156867,-2.9158765 7.115111,-4.2500615 9.578332,-4.3198845 2.456239,-0.06962 4.013598,0.50551 5.010699,1.850456 1.009368,1.3614925 1.258074,3.2363735 0.822636,6.2014795 -0.361309,2.460333 -0.223329,4.250004 0.327668,4.250004 0.523488,0 5.388561,-1.149213 10.811273,-2.553801 5.422712,-1.404588 15.934476,-4.110625 23.359476,-6.013415 7.425004,-1.9027905 14.512515,-3.8939345 15.750015,-4.4247645 1.27298,-0.546052 2.25,-1.8429139 2.25,-2.9865849 0,-1.130168 0.66136,-2.021439 1.5,-2.021439 0.825,0 1.5,0.45 1.5,1 0,0.55 0.43588,1 0.96862,1 0.53273,0 0.70959,-0.675 0.39301,-1.5 -0.36449,-0.949843 0.0138,-1.5 1.03138,-1.5 0.88385,0 1.60699,0.45 1.60699,1 0,0.55 0.43588,1 0.96862,1 0.53273,0 0.70959,-0.675 0.39301,-1.5 -0.36449,-0.94984299 0.0138,-1.49999999 1.03138,-1.49999999 0.88385,0 1.60699,0.435877 1.60699,0.96861499 0,0.532739 0.675,0.709594 1.5,0.393011 0.825,-0.316582 1.5,-0.03594 1.5,0.623656 0,0.659593 0.9,2.343424 2,3.741847 1.1,1.3984239 2,3.1265779 2,3.8403419 0,0.7137655 -0.93828,1.5955535 -2.08508,1.9595315 -1.44155,0.457531 -2.83718,-0.04479 -4.52198,-1.627583 -2.43692,-2.2893605 -2.43692,-2.2893605 -11.16493,-0.03079 -4.8004,1.242213 -17.635592,4.978297 -28.522619,8.302409 -18.548098,5.663246 -20.3113,6.021326 -28,5.686406 -8.205406,-0.35744 -8.205406,-0.35744 -9.947433,3.14256 -0.958115,1.925 -2.506623,4.0625 -3.44113,4.75 -0.934506,0.6875 -3.658548,1.25 -6.053427,1.25 -3.289777,0 -4.954414,0.60009 -6.808871,2.45454 -1.543706,1.54371 -2.454545,3.59772 -2.454545,5.53519 0,1.69435 0.741825,4.2128 1.6485,5.59656 0.906675,1.38376 3.012556,3.22131 4.679735,4.08344 3.031235,1.56752 3.031235,1.56752 0.6015,2.91346 -1.336354,0.74026 -3.779735,1.35911 -5.429735,1.37521 -1.65,0.0161 -4.35,-0.66876 -6,-1.52191 z m 16.247236,-4.42068 c -1.387364,-1.0913 -2.807599,-3.12018 -3.156076,-4.50863 -0.371433,-1.4799 -0.01673,-3.71732 0.857238,-5.4074 0.819958,-1.58562 2.854506,-3.35833 4.521217,-3.93935 2.115051,-0.73731 3.936541,-0.74051 6.030385,-0.0106 1.65,0.5752 3,1.36179 3,1.74798 0,0.3862 -0.518938,1.22112 -1.153196,1.85537 -0.793418,0.79342 -1.729368,0.84484 -3,0.16482 -1.238903,-0.66304 -2.505132,-0.63605 -3.846804,0.082 -1.1,0.5887 -2,2.08954 -2,3.33518 0,1.24565 0.54,2.80482 1.2,3.46482 0.66,0.66 2.1,1.2 3.2,1.2 1.555556,0 1.733333,-0.26667 0.8,-1.2 -0.66,-0.66 -1.2,-1.785 -1.2,-2.5 0,-0.77778 1.205128,-1.3 3,-1.3 2.819592,0 3,0.23411 3,3.89301 0,2.62743 -0.514226,4.09034 -1.581787,4.5 -0.869984,0.33385 -2.834297,0.60699 -4.365142,0.60699 -1.530844,0 -3.91847,-0.89288 -5.305835,-1.98418 z m 15.252764,-0.0158 c -1.555556,-1.55555 -2,-3.33333 -2,-8 0,-5.33333 0.222222,-6 2,-6 1.698219,0 2,0.66667 2,4.41822 0,2.43001 0.273145,5.13001 0.606989,6 0.333844,0.86998 1.436387,1.58178 2.450096,1.58178 1.542345,0 1.892046,-0.9383 2.143011,-5.75 0.265673,-5.09369 0.556719,-5.78647 2.549904,-6.06955 2.121297,-0.30127 2.25,0.0276 2.25,5.75 0,4.73622 -0.439352,6.5089 -2,8.06955 -1.111111,1.11111 -3.333333,2 -5,2 -1.666667,0 -3.888889,-0.88889 -5,-2 z m 14,-6 c 0,-7.86666 0.04167,-8 2.5,-8 2.458333,0 2.5,0.13334 2.5,8 0,7.86667 -0.04167,8 -2.5,8 -2.458333,0 -2.5,-0.13333 -2.5,-8 z m 10,1.5 c 0,-5.83333 -0.205128,-6.5 -2,-6.5 -1.111111,0 -2,-0.66666 -2,-1.5 0,-1.17948 1.388889,-1.5 6.5,-1.5 5.111111,0 6.5,0.32052 6.5,1.5 0,0.83334 -0.888889,1.5 -2,1.5 -1.794872,0 -2,0.66667 -2,6.5 0,6.26667 -0.08974,6.5 -2.5,6.5 -2.410256,0 -2.5,-0.23333 -2.5,-6.5 z m 7,6.23373 c 0,-0.14645 1.290413,-3.63395 2.867585,-7.75 2.470479,-6.44737 3.232126,-7.52755 5.5,-7.80015 1.447828,-0.17403 2.632415,-0.12759 2.632415,0.1032 0,0.23079 1.125,3.52123 2.5,7.31209 1.375,3.79086 2.5,7.23192 2.5,7.6468 0,0.41488 -0.914123,0.75433 -2.031385,0.75433 -1.117261,0 -2.290406,-0.675 -2.606989,-1.5 -0.321057,-0.83666 -1.807652,-1.5 -3.361626,-1.5 -1.553974,0 -3.040569,0.66334 -3.361626,1.5 -0.316583,0.825 -1.489728,1.5 -2.606989,1.5 -1.117262,0 -2.031385,-0.11982 -2.031385,-0.26627 z m 9,-8.29274 c 0,-0.85746 -0.45,-1.28091 -1,-0.94099 -0.55,0.33992 -1,1.04148 -1,1.55902 0,0.51754 0.45,0.94098 1,0.94098 0.55,0 1,-0.70156 1,-1.55901 z m 8.000004,0.5763 c 0,-8.12181 0,-8.12181 5.147021,-7.81955 3.5492,0.20843 5.48284,0.83762 6.22884,2.02682 0.77639,1.23767 0.77435,2.53916 -0.007,4.6098 -0.82934,2.19717 -0.77312,3.45526 0.23573,5.27544 0.72863,1.31461 1.34073,2.7277 1.36021,3.1402 0.0195,0.4125 -0.87117,0.75 -1.97926,0.75 -1.18561,0 -2.79902,-1.28972 -3.92064,-3.13407 -1.90594,-3.13407 -1.90594,-3.13407 -2.2353,-0.25 -0.24024,2.1037 -0.93817,2.97054 -2.579364,3.20362 -2.175117,0.30888 -2.250237,0.0484 -2.250237,-7.80226 z m 7.500011,-3.01729 c 0,-0.73333 -0.5625,-1.52083 -1.25,-1.75 -0.74359,-0.24786 -1.25,0.46111 -1.25,1.75 0,1.28889 0.50641,1.99787 1.25,1.75 0.6875,-0.22916 1.25,-1.01666 1.25,-1.75 z"
       id="path1" />
  </g>
</svg>
